name C:\Users\u0101727\Documents\MyRepositories\upper-imu-dc\Results\main_tracking\Case_10\kinematics.mot
datacolumns 10
datarows 28
range 3.50000000 3.77000000
endheader 
time	clav_prot	clav_elev	scapula_abduction	scapula_elevation	scapula_upward_rot	scapula_winging	plane_elv	shoulder_elv	axial_rot	
          3.50000000	        -48.85736156	         12.37527051	         -5.40431347	          0.59341064	         86.94111283	        -15.19074968	         39.20383705	         88.51920046	        -10.50487799	
          3.51000000	        -48.85791198	         12.39018216	         -5.41852791	          0.60157607	         86.92872403	        -15.19659722	         39.26684938	         88.47925457	        -10.34647934	
          3.52000000	        -48.85360342	         12.40452050	         -5.42699462	          0.60931032	         86.91298523	        -15.19921234	         39.32069169	         88.44116787	        -10.21910501	
          3.53000000	        -48.84351114	         12.41731163	         -5.42787228	          0.61605158	         86.89394441	        -15.19767457	         39.36410870	         88.40586521	        -10.12229071	
          3.54000000	        -48.82727228	         12.42775049	         -5.42002374	          0.62135416	         86.87202039	        -15.19146324	         39.39645424	         88.37374187	        -10.05468865	
          3.55000000	        -48.80527689	         12.43523245	         -5.40337498	          0.62488674	         86.84795828	        -15.18062187	         39.41795821	         88.34459312	        -10.01407202	
          3.56000000	        -48.77872002	         12.43934568	         -5.37909672	          0.62640419	         86.82269882	        -15.16582185	         39.42986082	         88.31770503	         -9.99764843	
          3.57000000	        -48.74947531	         12.43985576	         -5.34952046	          0.62572371	         86.79720447	        -15.14829280	         39.43431017	         88.29208546	        -10.00275683	
          3.58000000	        -48.71980822	         12.43670822	         -5.31779441	          0.62272660	         86.77228388	        -15.12963127	         39.43402731	         88.26677167	        -10.02762220	
          3.59000000	        -48.69199816	         12.43004633	         -5.28736257	          0.61738376	         86.74845591	        -15.11153507	         39.43183256	         88.24112438	        -10.07177503	
          3.60000000	        -48.66796975	         12.42022280	         -5.26140219	          0.60978678	         86.72588561	        -15.09553126	         39.43016852	         88.21502234	        -10.13598354	
          3.61000000	        -48.64903303	         12.40779025	         -5.24237338	          0.60016704	         86.70440397	        -15.08277051	         39.43074883	         88.18890307	        -10.22182439	
          3.62000000	        -48.63579319	         12.39347043	         -5.23179203	          0.58889590	         86.68359786	        -15.07393610	         39.43441634	         88.16364137	        -10.33103231	
          3.63000000	        -48.62822554	         12.37810963	         -5.23024060	          0.57646740	         86.66294509	        -15.06926908	         39.44122326	         88.14029584	        -10.46459558	
          3.64000000	        -48.62585138	         12.36262492	         -5.23753912	          0.56346705	         86.64195770	        -15.06866758	         39.45067442	         88.11979650	        -10.62157003	
          3.65000000	        -48.62793636	         12.34794013	         -5.25296548	          0.55052905	         86.62030623	        -15.07180391	         39.46203407	         88.10265347	        -10.79784308	
          3.66000000	        -48.63365558	         12.33490644	         -5.27543844	          0.53828192	         86.59791455	        -15.07821820	         39.47460395	         88.08874347	        -10.98526124	
          3.67000000	        -48.64220332	         12.32420532	         -5.30363128	          0.52728194	         86.57501754	        -15.08737240	         39.48792392	         88.07720489	        -11.17146997	
          3.68000000	        -48.65285174	         12.31624372	         -5.33603861	          0.51793835	         86.55216398	        -15.09867396	         39.50188887	         88.06646104	        -11.34068744	
          3.69000000	        -48.66497460	         12.31106658	         -5.37105083	          0.51044187	         86.53013693	        -15.11149222	         39.51679350	         88.05438975	        -11.47557942	
          3.70000000	        -48.67805203	         12.30831957	         -5.40708658	          0.50471446	         86.50977140	        -15.12519049	         39.53331389	         88.03864601	        -11.56028949	
          3.71000000	        -48.69167088	         12.30728585	         -5.44279852	          0.50039799	         86.49169064	        -15.13918574	         39.55244141	         88.01708978	        -11.58419048	
          3.72000000	        -48.70553257	         12.30700428	         -5.47731182	          0.49689717	         86.47604548	        -15.15302956	         39.57540124	         87.98818596	        -11.54510167	
          3.73000000	        -48.71943893	         12.30646549	         -5.51038357	          0.49348811	         86.46234039	        -15.16647019	         39.60355805	         87.95125954	        -11.45045789	
          3.74000000	        -48.73325722	         12.30485164	         -5.54242342	          0.48947913	         86.44941709	        -15.17947564	         39.63832212	         87.90651526	        -11.31578300	
          3.75000000	        -48.74686954	         12.30176722	         -5.57436908	          0.48438826	         86.43559610	        -15.19221132	         39.68105755	         87.85483425	        -11.16098702	
          3.76000000	        -48.76007769	         12.29741129	         -5.60741928	          0.47809515	         86.41888923	        -15.20495759	         39.73296673	         87.79748575	        -11.00567065	
          3.77000000	        -48.77249628	         12.29263240	         -5.64270574	          0.47091754	         86.39722479	        -15.21799266	         39.79498486	         87.73583929	        -10.86477234	
